# xmcd
#
# Track frame offsets:
#	150
#	23799
#	41522
#	58156
#	79125
#	94803
#	110731
#	125609
#	140984
#	154382
#	178031
#	195754
#	212388
#	233357
#	249035
#	264963
#	279841
#	295216
#
# Disc length: 4114 seconds
#
# Revision: 1
# Processed by: cddbd v1.5.2PL0 Copyright (c) Steve Scherf et al.
# Submitted via: audiograbber 1.83.01
#
DISCID=f5101012
DTITLE=Phm21116-03 - Phm21116-03
DYEAR=2011
DGENRE=Pop
TTITLE0=Brad Paisley - This Is Country
TTITLE1=Steel Magnolia - Last Night Again
TTITLE2=Band Perry - You Lie
TTITLE3=Gwyneth Paltrow and Tim Mcgraw - Me And Tennessee
TTITLE4=Trace Adkins - Timing Is Everything
TTITLE5=Julianne Hough - Is That So Wrong
TTITLE6=Hank Williams Jr. - Thirsty
TTITLE7=Cory Morrow - Brand New Me
TTITLE8=Alabama - Are You Sure Hank Done It This Way
TTITLE9=Brad Paisley - This Is Country (vocals)
TTITLE10=Steel Magnolia - Last Night Again (vocals)
TTITLE11=Band Perry, The - You Lie (vocals)
TTITLE12=Gwyneth Paltrow and Tim Mcgraw - Me And Tennessee (vocals)
TTITLE13=Trace Adkins - Timing Is Everything (vocals)
TTITLE14=Julianna Hough - Is That So Wrong (vocals)
TTITLE15=Hank Williams Jr. - Thirsty (vocals)
TTITLE16=Cory Morrow - Brand New Me (vocals)
TTITLE17=Alabama - Are You Sure Hank Done It This Way (vocals)
EXTD=
EXTT0=
EXTT1=
EXTT2=
EXTT3=
EXTT4=
EXTT5=
EXTT6=
EXTT7=
EXTT8=
EXTT9=
EXTT10=
EXTT11=
EXTT12=
EXTT13=
EXTT14=
EXTT15=
EXTT16=
EXTT17=
PLAYORDER=
